<mxfile host="Electron" agent="Mozilla/5.0 (Windows NT 10.0; Win64; x64) AppleWebKit/537.36 (KHTML, like Gecko) draw.io/24.7.17 Chrome/128.0.6613.36 Electron/32.0.1 Safari/537.36" version="24.7.17">
  <diagram name="Page-1" id="wjZUAwNJp46vi1i3laEs">
    <mxGraphModel dx="1572" dy="758" grid="1" gridSize="10" guides="1" tooltips="1" connect="1" arrows="1" fold="1" page="1" pageScale="1" pageWidth="850" pageHeight="1100" math="0" shadow="0">
      <root>
        <mxCell id="0" />
        <mxCell id="1" parent="0" />
        <mxCell id="pU1uprN8kO15Rdifl0xy-8" value="запрос на работу с гардеробом" style="html=1;verticalAlign=bottom;endArrow=block;curved=0;rounded=0;entryX=0;entryY=0;entryDx=0;entryDy=5;entryPerimeter=0;" edge="1" parent="1" source="pU1uprN8kO15Rdifl0xy-4" target="pU1uprN8kO15Rdifl0xy-6">
          <mxGeometry x="0.0033" y="-20" width="80" relative="1" as="geometry">
            <mxPoint x="120" y="140" as="sourcePoint" />
            <mxPoint x="200" y="140" as="targetPoint" />
            <mxPoint as="offset" />
          </mxGeometry>
        </mxCell>
        <mxCell id="pU1uprN8kO15Rdifl0xy-3" value=":Страница сканирования" style="shape=umlLifeline;perimeter=lifelinePerimeter;whiteSpace=wrap;html=1;container=1;dropTarget=0;collapsible=0;recursiveResize=0;outlineConnect=0;portConstraint=eastwest;newEdgeStyle={&quot;curved&quot;:0,&quot;rounded&quot;:0};" vertex="1" parent="1">
          <mxGeometry x="250" y="30" width="100" height="700" as="geometry" />
        </mxCell>
        <mxCell id="pU1uprN8kO15Rdifl0xy-6" value="" style="html=1;points=[[0,0,0,0,5],[0,1,0,0,-5],[1,0,0,0,5],[1,1,0,0,-5]];perimeter=orthogonalPerimeter;outlineConnect=0;targetShapes=umlLifeline;portConstraint=eastwest;newEdgeStyle={&quot;curved&quot;:0,&quot;rounded&quot;:0};" vertex="1" parent="pU1uprN8kO15Rdifl0xy-3">
          <mxGeometry x="45" y="110" width="10" height="500" as="geometry" />
        </mxCell>
        <mxCell id="pU1uprN8kO15Rdifl0xy-4" value="" style="shape=umlLifeline;perimeter=lifelinePerimeter;whiteSpace=wrap;html=1;container=1;dropTarget=0;collapsible=0;recursiveResize=0;outlineConnect=0;portConstraint=eastwest;newEdgeStyle={&quot;curved&quot;:0,&quot;rounded&quot;:0};participant=umlActor;" vertex="1" parent="1">
          <mxGeometry x="90" y="30" width="20" height="680" as="geometry" />
        </mxCell>
        <mxCell id="pU1uprN8kO15Rdifl0xy-5" value="" style="html=1;points=[[0,0,0,0,5],[0,1,0,0,-5],[1,0,0,0,5],[1,1,0,0,-5]];perimeter=orthogonalPerimeter;outlineConnect=0;targetShapes=umlLifeline;portConstraint=eastwest;newEdgeStyle={&quot;curved&quot;:0,&quot;rounded&quot;:0};" vertex="1" parent="pU1uprN8kO15Rdifl0xy-4">
          <mxGeometry x="5" y="70" width="10" height="600" as="geometry" />
        </mxCell>
        <mxCell id="pU1uprN8kO15Rdifl0xy-9" value=":Пользователи" style="shape=umlLifeline;perimeter=lifelinePerimeter;whiteSpace=wrap;html=1;container=1;dropTarget=0;collapsible=0;recursiveResize=0;outlineConnect=0;portConstraint=eastwest;newEdgeStyle={&quot;curved&quot;:0,&quot;rounded&quot;:0};" vertex="1" parent="1">
          <mxGeometry x="410" y="30" width="100" height="710" as="geometry" />
        </mxCell>
        <mxCell id="pU1uprN8kO15Rdifl0xy-10" value="" style="html=1;points=[[0,0,0,0,5],[0,1,0,0,-5],[1,0,0,0,5],[1,1,0,0,-5]];perimeter=orthogonalPerimeter;outlineConnect=0;targetShapes=umlLifeline;portConstraint=eastwest;newEdgeStyle={&quot;curved&quot;:0,&quot;rounded&quot;:0};" vertex="1" parent="pU1uprN8kO15Rdifl0xy-9">
          <mxGeometry x="45" y="120" width="10" height="80" as="geometry" />
        </mxCell>
        <mxCell id="pU1uprN8kO15Rdifl0xy-11" value="Поиск пользователя" style="html=1;verticalAlign=bottom;endArrow=block;curved=0;rounded=0;entryX=0;entryY=0;entryDx=0;entryDy=5;" edge="1" target="pU1uprN8kO15Rdifl0xy-10" parent="1" source="pU1uprN8kO15Rdifl0xy-6">
          <mxGeometry relative="1" as="geometry">
            <mxPoint x="385" y="155" as="sourcePoint" />
          </mxGeometry>
        </mxCell>
        <mxCell id="pU1uprN8kO15Rdifl0xy-12" value="Идентификатор&amp;nbsp;&lt;div&gt;пользователя&lt;div&gt;в системе&lt;/div&gt;&lt;/div&gt;" style="html=1;verticalAlign=bottom;endArrow=open;dashed=1;endSize=8;curved=0;rounded=0;exitX=0;exitY=1;exitDx=0;exitDy=-5;" edge="1" source="pU1uprN8kO15Rdifl0xy-10" parent="1" target="pU1uprN8kO15Rdifl0xy-6">
          <mxGeometry x="-0.1333" y="45" relative="1" as="geometry">
            <mxPoint x="385" y="225" as="targetPoint" />
            <mxPoint as="offset" />
          </mxGeometry>
        </mxCell>
        <mxCell id="pU1uprN8kO15Rdifl0xy-13" value=": Ячейки" style="shape=umlLifeline;perimeter=lifelinePerimeter;whiteSpace=wrap;html=1;container=1;dropTarget=0;collapsible=0;recursiveResize=0;outlineConnect=0;portConstraint=eastwest;newEdgeStyle={&quot;curved&quot;:0,&quot;rounded&quot;:0};" vertex="1" parent="1">
          <mxGeometry x="690" y="30" width="100" height="700" as="geometry" />
        </mxCell>
        <mxCell id="pU1uprN8kO15Rdifl0xy-14" value="" style="html=1;points=[[0,0,0,0,5],[0,1,0,0,-5],[1,0,0,0,5],[1,1,0,0,-5]];perimeter=orthogonalPerimeter;outlineConnect=0;targetShapes=umlLifeline;portConstraint=eastwest;newEdgeStyle={&quot;curved&quot;:0,&quot;rounded&quot;:0};" vertex="1" parent="pU1uprN8kO15Rdifl0xy-13">
          <mxGeometry x="45" y="240" width="10" height="80" as="geometry" />
        </mxCell>
        <mxCell id="pU1uprN8kO15Rdifl0xy-15" value="Поиск ячеек&amp;nbsp;&lt;div&gt;пользователя&lt;/div&gt;" style="html=1;verticalAlign=bottom;endArrow=block;curved=0;rounded=0;entryX=0;entryY=0;entryDx=0;entryDy=5;" edge="1" target="pU1uprN8kO15Rdifl0xy-14" parent="1" source="pU1uprN8kO15Rdifl0xy-6">
          <mxGeometry x="0.7755" y="15" relative="1" as="geometry">
            <mxPoint x="515" y="275" as="sourcePoint" />
            <mxPoint as="offset" />
          </mxGeometry>
        </mxCell>
        <mxCell id="pU1uprN8kO15Rdifl0xy-16" value="Список ячеек пользователя" style="html=1;verticalAlign=bottom;endArrow=open;dashed=1;endSize=8;curved=0;rounded=0;exitX=0;exitY=1;exitDx=0;exitDy=-5;" edge="1" source="pU1uprN8kO15Rdifl0xy-14" parent="1" target="pU1uprN8kO15Rdifl0xy-6">
          <mxGeometry x="-0.6531" y="-5" relative="1" as="geometry">
            <mxPoint x="310" y="345" as="targetPoint" />
            <mxPoint as="offset" />
          </mxGeometry>
        </mxCell>
        <mxCell id="pU1uprN8kO15Rdifl0xy-17" value="alt" style="shape=umlFrame;whiteSpace=wrap;html=1;pointerEvents=0;" vertex="1" parent="1">
          <mxGeometry x="210" y="400" width="630" height="140" as="geometry" />
        </mxCell>
        <mxCell id="pU1uprN8kO15Rdifl0xy-18" value=":Система подбора ячеек" style="shape=umlLifeline;perimeter=lifelinePerimeter;whiteSpace=wrap;html=1;container=1;dropTarget=0;collapsible=0;recursiveResize=0;outlineConnect=0;portConstraint=eastwest;newEdgeStyle={&quot;curved&quot;:0,&quot;rounded&quot;:0};" vertex="1" parent="1">
          <mxGeometry x="530" y="30" width="100" height="700" as="geometry" />
        </mxCell>
        <mxCell id="pU1uprN8kO15Rdifl0xy-19" value="" style="html=1;points=[[0,0,0,0,5],[0,1,0,0,-5],[1,0,0,0,5],[1,1,0,0,-5]];perimeter=orthogonalPerimeter;outlineConnect=0;targetShapes=umlLifeline;portConstraint=eastwest;newEdgeStyle={&quot;curved&quot;:0,&quot;rounded&quot;:0};" vertex="1" parent="pU1uprN8kO15Rdifl0xy-18">
          <mxGeometry x="45" y="400" width="10" height="80" as="geometry" />
        </mxCell>
        <mxCell id="pU1uprN8kO15Rdifl0xy-20" value="расчет ближайшей ячейки" style="html=1;verticalAlign=bottom;endArrow=block;curved=0;rounded=0;entryX=0;entryY=0;entryDx=0;entryDy=5;" edge="1" target="pU1uprN8kO15Rdifl0xy-19" parent="1" source="pU1uprN8kO15Rdifl0xy-6">
          <mxGeometry relative="1" as="geometry">
            <mxPoint x="535" y="435" as="sourcePoint" />
          </mxGeometry>
        </mxCell>
        <mxCell id="pU1uprN8kO15Rdifl0xy-21" value="номер ячейки" style="html=1;verticalAlign=bottom;endArrow=open;dashed=1;endSize=8;curved=0;rounded=0;exitX=0;exitY=1;exitDx=0;exitDy=-5;" edge="1" source="pU1uprN8kO15Rdifl0xy-19" parent="1" target="pU1uprN8kO15Rdifl0xy-6">
          <mxGeometry relative="1" as="geometry">
            <mxPoint x="535" y="505" as="targetPoint" />
          </mxGeometry>
        </mxCell>
        <mxCell id="pU1uprN8kO15Rdifl0xy-22" value="[отсутсвуют хранимые вещи]" style="text;html=1;align=center;verticalAlign=middle;resizable=0;points=[];autosize=1;strokeColor=none;fillColor=none;" vertex="1" parent="1">
          <mxGeometry x="220" y="448" width="180" height="30" as="geometry" />
        </mxCell>
        <mxCell id="pU1uprN8kO15Rdifl0xy-23" value="Пользователь" style="text;html=1;align=center;verticalAlign=middle;resizable=0;points=[];autosize=1;strokeColor=none;fillColor=none;" vertex="1" parent="1">
          <mxGeometry x="50" y="68" width="100" height="30" as="geometry" />
        </mxCell>
        <mxCell id="pU1uprN8kO15Rdifl0xy-24" value="" style="shape=umlLifeline;perimeter=lifelinePerimeter;whiteSpace=wrap;html=1;container=1;dropTarget=0;collapsible=0;recursiveResize=0;outlineConnect=0;portConstraint=eastwest;newEdgeStyle={&quot;curved&quot;:0,&quot;rounded&quot;:0};participant=umlActor;" vertex="1" parent="1">
          <mxGeometry x="870" y="30" width="20" height="690" as="geometry" />
        </mxCell>
        <mxCell id="pU1uprN8kO15Rdifl0xy-26" value="" style="html=1;points=[[0,0,0,0,5],[0,1,0,0,-5],[1,0,0,0,5],[1,1,0,0,-5]];perimeter=orthogonalPerimeter;outlineConnect=0;targetShapes=umlLifeline;portConstraint=eastwest;newEdgeStyle={&quot;curved&quot;:0,&quot;rounded&quot;:0};" vertex="1" parent="pU1uprN8kO15Rdifl0xy-24">
          <mxGeometry x="5" y="520" width="10" height="150" as="geometry" />
        </mxCell>
        <mxCell id="pU1uprN8kO15Rdifl0xy-25" value="Сотрудник&lt;div&gt;&lt;br&gt;&lt;/div&gt;" style="text;html=1;align=center;verticalAlign=middle;resizable=0;points=[];autosize=1;strokeColor=none;fillColor=none;" vertex="1" parent="1">
          <mxGeometry x="840" y="68" width="80" height="40" as="geometry" />
        </mxCell>
        <mxCell id="pU1uprN8kO15Rdifl0xy-27" value="Номер ячейки" style="html=1;verticalAlign=bottom;endArrow=block;curved=0;rounded=0;entryX=0;entryY=0;entryDx=0;entryDy=5;" edge="1" target="pU1uprN8kO15Rdifl0xy-26" parent="1" source="pU1uprN8kO15Rdifl0xy-6">
          <mxGeometry x="0.2807" y="-25" relative="1" as="geometry">
            <mxPoint x="805" y="555" as="sourcePoint" />
            <Array as="points">
              <mxPoint x="660" y="555" />
            </Array>
            <mxPoint as="offset" />
          </mxGeometry>
        </mxCell>
      </root>
    </mxGraphModel>
  </diagram>
</mxfile>
